<?xml version="1.0" standalone="no"?><!DOCTYPE svg PUBLIC "-//W3C//DTD SVG 1.1//EN" "http://www.w3.org/Graphics/SVG/1.1/DTD/svg11.dtd"><svg t="1669291102001" class="icon" viewBox="0 0 1024 1024" version="1.1" xmlns="http://www.w3.org/2000/svg" p-id="45576" xmlns:xlink="http://www.w3.org/1999/xlink" width="200" height="200"><path d="M814.1824 880.64H203.264c-34.8672 0-63.1296-28.2624-63.1296-63.1296v-25.7536c0-34.8672 28.2624-63.1296 63.1296-63.1296h610.8672c34.8672 0 63.1296 28.2624 63.1296 63.1296v25.7536c0.0512 34.816-28.2112 63.1296-63.0784 63.1296z" fill="#F55C04" p-id="45577"></path><path d="M864.8704 276.0704c-6.0928-24.7808-21.504-45.6704-43.3664-58.88l-205.312-124.0576a94.976 94.976 0 0 0-72.2944-11.008 94.6688 94.6688 0 0 0-58.88 43.3664l-249.6 413.0304a95.62624 95.62624 0 0 0-12.5952 64.4096l26.1632 164.4032c4.1472 26.2144 19.2 49.7152 41.2672 64.4608 15.8208 10.5984 34.4064 16.0768 53.1968 16.0768 7.424 0 14.848-0.8704 22.1696-2.6112l180.9408-43.3152c24.7296-5.888 46.4384-21.76 59.5456-43.52l247.808-410.112c13.1584-21.8112 17.1008-47.4624 10.9568-72.2432z m-311.3984 450.6624a34.5088 34.5088 0 0 1-21.248 15.5648l-180.9408 43.3152c-9.3696 2.2528-18.8928 0.512-26.88-4.8128a33.85856 33.85856 0 0 1-14.7456-22.9888l-26.1632-164.4544c-1.28-7.936 0.3072-16.128 4.5056-22.9888l177.7664-294.144 265.0112 157.184-177.3056 293.3248z m247.808-410.1632l-38.7584 64.1024c-0.0512-0.0512-0.1024-0.1024-0.2048-0.1024L497.5104 223.5392 537.6 157.2352c4.7104-7.7824 12.1856-13.312 21.0432-15.4624 2.7136-0.6656 5.4784-1.024 8.2432-1.024 6.144 0 12.1856 1.6896 17.5616 4.9152l205.312 124.0576c7.7824 4.7104 13.312 12.1856 15.4624 21.0432 2.2016 8.8576 0.8192 18.0224-3.9424 25.8048z" fill="#333333" p-id="45578"></path></svg>